<svg width="1500" height="1500" viewBox="0 0 1500 1500" fill="none" xmlns="http://www.w3.org/2000/svg">
<path d="M1499.91 749.95C1499.91 998.223 1499.94 1246.49 1500 1494.76C1500 1498.76 1499.53 1500 1495 1500C998.28 1499.86 501.56 1499.86 4.84 1500C0.739996 1500 0 1499.13 0 1495.12C0.113333 998.413 0.113333 501.707 0 5C0 1.16 0.46999 0 4.73999 0C501.46 0.126667 998.18 0.126667 1494.9 0C1499.19 0 1499.99 0.999974 1499.99 5.12997C1499.89 253.41 1499.86 501.683 1499.91 749.95Z" fill="#FEFEFE"/>
<path d="M551.896 932.886C523.716 931.886 503.716 910.476 504.986 882.356C506.036 859.356 524.906 835.526 558.616 837.566C583.396 839.076 603.696 860.836 602.876 886.296C601.996 914.006 580.226 933.896 551.896 932.886Z" fill="#FE0442"/>
<path fill-rule="evenodd" clip-rule="evenodd" d="M750.5 1469C1147.32 1469 1469 1147.32 1469 750.5C1469 353.683 1147.32 32 750.5 32C353.683 32 32 353.683 32 750.5C32 1147.32 353.683 1469 750.5 1469ZM750.5 1375C1095.4 1375 1375 1095.4 1375 750.5C1375 405.598 1095.4 126 750.5 126C405.598 126 126 405.598 126 750.5C126 1095.4 405.598 1375 750.5 1375ZM321.469 872.905L321.47 872.913C321.548 878.455 321.627 883.997 321.645 889.536C321.64 896.009 321.629 902.483 321.619 908.957L321.619 909.085L321.618 909.093C321.592 925.397 321.565 941.709 321.615 958.046C321.541 973.224 324.2 988.291 329.465 1002.53C338.245 1025.78 352.445 1044.33 376.705 1052.72C406.235 1062.87 435.935 1062.02 464.855 1050.32C488.345 1040.82 503.385 1017.15 494.855 990.436C489.295 973.096 473.185 962.246 455.295 966.026C452.953 966.526 450.625 967.107 448.297 967.688L448.296 967.688L448.295 967.688L448.294 967.689L448.292 967.689L448.291 967.69L448.29 967.69L448.288 967.69L448.287 967.691L448.286 967.691L448.284 967.691L448.283 967.692L448.282 967.692L448.281 967.692C444.802 968.56 441.325 969.427 437.805 970.026C428.305 971.616 421.525 966.076 420.715 956.476C420.599 955.061 420.609 953.628 420.62 952.2V952.196C420.621 952.035 420.622 951.874 420.623 951.713C420.624 951.467 420.625 951.221 420.625 950.976L420.475 884.506L420.465 884.507C420.472 877.617 420.515 870.726 420.559 863.836V863.833C420.661 847.734 420.763 831.635 420.385 815.536C419.955 797.156 414.985 780.076 402.105 766.076C396.105 759.536 388.665 754.936 380.105 750.626C388.825 746.236 396.405 741.536 402.465 734.796C415.945 719.836 420.345 701.646 420.535 682.206C420.72 664.117 420.683 646.023 420.646 627.927C420.631 620.524 420.615 613.12 420.615 605.716C420.62 601.288 420.62 596.86 420.62 592.433C420.621 575.701 420.622 558.97 420.835 542.246C420.935 534.046 426.345 530.026 433.605 529.476C438.731 529.094 443.525 530.443 448.334 531.798C448.807 531.931 449.281 532.064 449.755 532.196C456.637 534.269 463.933 534.555 470.955 533.026C494.495 527.626 500.615 498.336 495.835 482.626C490.545 465.046 478.345 454.346 461.945 447.806C441.645 439.776 420.455 438.876 399.045 441.276C381.625 443.196 365.625 448.966 352.625 461.196C331.135 481.516 322.455 507.686 321.825 536.196C320.845 579.876 321.145 623.556 321.635 667.196C321.795 680.626 317.225 691.456 309.135 701.456C306.825 704.296 304.365 707.016 301.895 709.716C281.135 732.446 279.735 762.766 298.445 787.276C300.345 789.767 302.43 792.115 304.517 794.464C305.639 795.726 306.761 796.99 307.855 798.276C316.895 808.866 322.275 820.486 321.645 835.066C321.11 847.656 321.29 860.281 321.469 872.905ZM822.026 932.986H689.565C661.105 932.926 640.215 912.086 640.565 884.336C640.613 871.937 645.558 860.058 654.324 851.289C663.09 842.519 674.966 837.569 687.365 837.516C777.179 837.396 866.989 837.396 956.795 837.516C981.175 837.516 1001.65 856.106 1003.67 879.416C1005.98 906.016 990.245 927.616 964.975 932.346C961.519 932.879 958.021 933.096 954.526 932.996C910.359 933.016 866.192 933.013 822.026 932.986ZM678.915 568.206H810.815C823.815 568.206 835.706 571.466 845.045 580.736C859.855 595.436 864.605 614.606 857.225 633.926C850.135 652.516 832.745 663.806 811.896 663.806H545.095C520.675 663.806 500.385 646.216 497.525 623.286C493.795 593.396 514.045 573.386 534.605 569.286C537.379 568.746 540.199 568.478 543.025 568.486H678.915V568.206ZM812.316 798.416L956.336 798.406C983.186 798.386 1004.07 777.346 1004.07 750.456C1004.12 744.193 1002.93 737.982 1000.56 732.184C998.195 726.386 994.699 721.116 990.278 716.68C985.856 712.245 980.597 708.732 974.806 706.347C969.016 703.962 962.808 702.751 956.546 702.786H812.546C808.373 702.778 804.217 703.319 800.186 704.396C777.236 710.486 762.056 732.756 765.056 755.756C768.396 780.976 787.706 798.416 812.316 798.416ZM544.916 798.416H604.856C610.103 798.416 615.353 798.41 620.604 798.403C635.187 798.386 649.769 798.368 664.276 798.486C690.546 798.646 711.286 779.796 712.546 751.796C712.815 745.458 711.799 739.13 709.559 733.195C707.318 727.26 703.899 721.84 699.507 717.261C695.116 712.683 689.843 709.041 684.006 706.555C678.169 704.069 671.89 702.79 665.546 702.796C625.252 702.756 584.956 702.756 544.656 702.796C538.353 702.765 532.108 703.991 526.286 706.405C520.464 708.818 515.182 712.369 510.75 716.849C506.317 721.33 502.824 726.65 500.474 732.498C498.125 738.346 496.966 744.604 497.066 750.906C497.246 777.746 518.066 798.416 544.916 798.416ZM905.686 615.986C905.666 643.296 926.546 663.776 954.406 663.776C983.146 663.776 1004.15 643.506 1004.07 615.856C1003.94 589.096 982.936 568.186 956.066 568.096C927.156 567.986 905.686 588.396 905.686 615.986ZM1178.34 872.797C1178.27 878.341 1178.19 883.885 1178.17 889.427C1178.17 895.941 1178.18 902.456 1178.2 908.973V908.98V909.05C1178.22 925.332 1178.25 941.622 1178.2 957.937C1178.27 973.114 1175.61 988.181 1170.35 1002.42C1161.57 1025.67 1147.37 1044.22 1123.11 1052.61C1093.58 1062.76 1063.88 1061.91 1034.96 1050.21C1011.47 1040.71 996.429 1017.04 1004.96 990.326C1010.52 972.986 1026.63 962.136 1044.52 965.917C1046.87 966.418 1049.2 967 1051.53 967.582L1051.53 967.582L1051.53 967.582C1055.01 968.45 1058.49 969.318 1062.01 969.917C1071.51 971.507 1078.29 965.966 1079.1 956.367C1079.22 954.952 1079.21 953.519 1079.19 952.091V952.088C1079.19 951.68 1079.19 951.273 1079.19 950.867L1079.34 884.396L1079.35 884.397C1079.34 877.53 1079.3 870.662 1079.26 863.794L1079.26 863.727C1079.15 847.627 1079.05 831.527 1079.43 815.427C1079.86 797.047 1084.83 779.967 1097.71 765.967C1103.71 759.427 1111.15 754.827 1119.71 750.517C1110.99 746.127 1103.41 741.427 1097.35 734.687C1083.87 719.727 1079.47 701.537 1079.28 682.097C1079.09 664.008 1079.13 645.914 1079.17 627.819C1079.18 620.415 1079.2 613.011 1079.2 605.607C1079.2 603.305 1079.2 601.004 1079.19 598.702C1079.19 596.572 1079.19 594.443 1079.19 592.313V592.284C1079.19 575.565 1079.19 558.848 1078.98 542.137C1078.88 533.937 1073.47 529.917 1066.21 529.367C1061.08 528.984 1056.29 530.334 1051.48 531.688L1051.04 531.811L1050.6 531.936C1050.42 531.986 1050.24 532.037 1050.06 532.087C1043.18 534.16 1035.88 534.445 1028.86 532.917C1005.32 527.517 999.199 498.227 1003.98 482.517C1009.27 464.937 1021.47 454.237 1037.87 447.697C1058.17 439.667 1079.36 438.767 1100.77 441.167C1118.19 443.087 1134.19 448.857 1147.19 461.087C1168.68 481.407 1177.36 507.577 1177.99 536.087C1178.97 579.767 1178.67 623.447 1178.18 667.087C1178.02 680.517 1182.59 691.347 1190.68 701.347C1192.99 704.187 1195.45 706.907 1197.92 709.607C1218.68 732.337 1220.08 762.657 1201.37 787.167C1199.47 789.658 1197.38 792.005 1195.3 794.354C1194.17 795.617 1193.05 796.88 1191.96 798.167C1182.92 808.757 1177.54 820.377 1178.17 834.957C1178.7 847.547 1178.52 860.172 1178.34 872.797Z" fill="url(#paint0_linear)"/>
<defs>
<linearGradient id="paint0_linear" x1="749.741" y1="30" x2="749.741" y2="1469.37" gradientUnits="userSpaceOnUse">
<stop stop-color="#5111A6"/>
<stop offset="1" stop-color="#009DEE"/>
</linearGradient>
</defs>
</svg>
